<svg width="44" height="44" viewBox="0 0 44 44" fill="none" xmlns="http://www.w3.org/2000/svg">
<path d="M39.3981 10.0924C34.7221 1.04149 20.787 -2.68536 12.3379 2.61556C20.0925 5.71741 21.2268 13.3332 23.5879 17.847C27.4999 25.3933 44.4212 21.5507 39.3981 10.0924Z" fill="url(#paint0_linear)"/>
<path d="M12.3609 2.61541C11.435 2.26819 10.4164 2.08301 9.37478 2.08301C4.62941 2.08301 0.763672 5.90245 0.763672 10.6015C0.763672 15.3006 1.38867 14.2358 2.43034 15.6247C3.74978 10.0228 7.43034 5.32375 12.3609 2.61541Z" fill="url(#paint1_linear)"/>
<path d="M4.81813 28.6576C9.49406 37.7085 23.4292 41.4354 31.8783 36.1345C24.1237 33.0326 22.9894 25.4169 20.6283 20.903C16.7163 13.3567 -0.205018 17.1993 4.81813 28.6576Z" fill="url(#paint2_linear)"/>
<path d="M31.8516 36.1343C32.7775 36.4815 33.796 36.6667 34.8377 36.6667C39.583 36.6667 43.4488 32.8472 43.4488 28.1481C43.4488 23.4491 42.8238 24.5139 41.7821 23.125C40.4627 28.7269 36.7821 33.4259 31.8516 36.1343Z" fill="url(#paint3_linear)"/>
<defs>
<linearGradient id="paint0_linear" x1="36.2731" y1="20.2776" x2="17.1759" y2="-5.3474" gradientUnits="userSpaceOnUse">
<stop stop-color="#CB1487"/>
<stop offset="0.7" stop-color="#233F92"/>
<stop offset="1" stop-color="#2958A7"/>
</linearGradient>
<linearGradient id="paint1_linear" x1="1.29608" y1="13.7728" x2="8.70349" y2="1.96727" gradientUnits="userSpaceOnUse">
<stop stop-color="#CB1487"/>
<stop offset="0.7" stop-color="#233F92"/>
<stop offset="1" stop-color="#2958A7"/>
</linearGradient>
<linearGradient id="paint2_linear" x1="7.94313" y1="18.4724" x2="27.0404" y2="44.0974" gradientUnits="userSpaceOnUse">
<stop stop-color="#CB1487"/>
<stop offset="0.7" stop-color="#233F92"/>
<stop offset="1" stop-color="#2958A7"/>
</linearGradient>
<linearGradient id="paint3_linear" x1="43.4719" y1="29.8843" x2="31.8516" y2="29.8843" gradientUnits="userSpaceOnUse">
<stop stop-color="#CB1487"/>
<stop offset="0.8" stop-color="#233E8F"/>
<stop offset="1" stop-color="#2958A7"/>
</linearGradient>
</defs>
</svg>
